<?xml version="1.0" encoding="UTF-8"?>
<!-- Generated by Pixelmator Pro 3.4.3 -->
<svg width="617" height="592" viewBox="0 0 617 592" xmlns="http://www.w3.org/2000/svg">
    <path id="Path" fill="#65a8df" stroke="#272525" stroke-width="30" d="M 548.429993 197.440002 C 548.210022 216.669983 552.880005 233.339996 552.359985 248.139984 C 551.929993 260.47998 547.900024 271.529999 534.419983 281.689972 C 497.100006 309.829987 462.720001 260.199982 430.890015 250.179993 C 411.51001 244.079987 373.119995 252.199982 358.649994 277.259979 C 344.190002 302.309998 356.350006 339.619995 371.320007 353.349976 C 395.910004 375.909973 456.079987 380.869995 450.380005 427.25 C 448.320007 444.01001 440.76001 453.02002 430.290009 459.570007 C 417.730011 467.419983 400.959991 471.710022 384.420013 481.52002 C 349.929993 501.970032 369.299988 555.119995 308.209991 559.950012 L 308.209991 559.950012 C 247.110001 555.119995 266.5 501.970032 232.009995 481.52002 C 215.470001 471.710022 198.699997 467.419983 186.139999 459.570007 C 175.669998 453.02002 168.119995 444.01001 166.059998 427.25 C 160.350006 380.869995 220.520004 375.909973 245.110001 353.349976 C 260.080017 339.619995 272.23999 302.309998 257.779999 277.259979 C 243.309998 252.199982 204.919998 244.079987 185.539993 250.179993 C 153.720001 260.199982 119.330002 309.829987 82.010002 281.689972 C 68.540001 271.529999 64.5 260.47998 64.07 248.139984 C 63.549999 233.329987 68.220001 216.660004 68 197.440002 C 67.529999 157.350006 11.71 147.519989 38.07 92.190002 L 38.09 92.160004 C 72.82 41.659973 109.25 85.089996 144.210007 65.450012 C 160.970001 56.029968 173.059998 43.650024 186.139999 36.700012 C 197.039993 30.900024 208.630005 28.869995 224.169998 35.460022 C 267.200012 53.710022 241.410004 108.299988 248.649994 140.880005 C 253.059998 160.709991 279.279999 189.889984 308.220001 189.889984 C 337.160004 189.889984 363.369995 160.709991 367.779999 140.880005 C 375.019989 108.299988 349.230011 53.710022 392.26001 35.460022 C 407.799988 28.869995 419.390015 30.900024 430.290009 36.700012 C 443.369995 43.650024 455.470001 56.029968 472.230011 65.450012 C 507.179993 85.089996 543.539978 41.710022 578.27002 92.209991 L 578.27002 92.209991 C 604.640015 147.540009 548.900024 157.350006 548.429993 197.440002 Z"/>
</svg>
