<?xml version="1.0" encoding="UTF-8"?>
<svg id="Layer_2" data-name="Layer 2" xmlns="http://www.w3.org/2000/svg" viewBox="0 0 584.35 613.67">
  <defs>
    <style>
      .cls-1 {
        fill: none;
        stroke-linejoin: round;
      }

      .cls-1, .cls-2 {
        stroke: #272525;
        stroke-width: 30px;
      }

      .cls-2 {
        fill: #65a8df;
        stroke-miterlimit: 10;
      }
    </style>
  </defs>
  <g id="Layer_1-2" data-name="Layer 1">
    <path class="cls-2" d="m532.43,236.11c-.22,19.23,4.45,35.9,3.93,50.7-.43,12.34-4.46,23.39-17.94,33.55-37.32,28.14-71.7-21.49-103.53-31.51-19.38-6.1-57.77,2.02-72.24,27.08-14.46,25.05-2.3,62.36,12.67,76.09,24.59,22.56,84.76,27.52,79.06,73.9-2.06,16.76-9.62,25.77-20.09,32.32-12.56,7.85-29.33,12.14-45.87,21.95-34.49,20.45-15.12,73.6-76.21,78.43h0c-61.1-4.83-41.71-57.98-76.2-78.43-16.54-9.81-33.31-14.1-45.87-21.95-10.47-6.55-18.02-15.56-20.08-32.32-5.71-46.38,54.46-51.34,79.05-73.9,14.97-13.73,27.13-51.04,12.67-76.09-14.47-25.06-52.86-33.18-72.24-27.08-31.82,10.02-66.21,59.65-103.53,31.51-13.47-10.16-17.51-21.21-17.94-33.55-.52-14.81,4.15-31.48,3.93-50.7-.47-40.09-56.29-49.92-29.93-105.25l.02-.03c34.73-50.5,71.16-7.07,106.12-26.71,16.76-9.42,28.85-21.8,41.93-28.75,10.9-5.8,22.49-7.83,38.03-1.24,43.03,18.25,17.24,72.84,24.48,105.42,4.41,19.83,30.63,49.01,59.57,49.01s55.15-29.18,59.56-49.01c7.24-32.58-18.55-87.17,24.48-105.42,15.54-6.59,27.13-4.56,38.03,1.24,13.08,6.95,25.18,19.33,41.94,28.75,34.95,19.64,71.31-23.74,106.04,26.76h0c26.37,55.33-29.37,65.14-29.84,105.23Z"/>
    <polygon class="cls-1" points="527.61 422.71 56.82 422.71 292.21 15 527.61 422.71"/>
  </g>
</svg>